<mxfile host="app.diagrams.net" modified="2021-01-09T19:00:40.046Z" agent="5.0 (X11; Linux x86_64) AppleWebKit/537.36 (KHTML, like Gecko) Chrome/87.0.4280.88 Safari/537.36" etag="KxSxqZH1ttvZz82q27bH" version="14.1.9" type="github">
  <diagram id="8mFjPOVdW-ttj4N9xYHq" name="Page-1">
    <mxGraphModel dx="2191" dy="1914" grid="1" gridSize="10" guides="1" tooltips="1" connect="1" arrows="1" fold="1" page="1" pageScale="1" pageWidth="827" pageHeight="1169" math="0" shadow="0">
      <root>
        <mxCell id="0" />
        <mxCell id="1" parent="0" />
        <mxCell id="7mZ6N7cNtGCExNmRLh_p-15" value="&lt;b&gt;Nó na periferia da rede&lt;/b&gt;" style="ellipse;whiteSpace=wrap;html=1;aspect=fixed;shadow=0;sketch=0;labelPosition=center;verticalLabelPosition=bottom;align=center;verticalAlign=top;strokeColor=#B09500;fillColor=none;spacingLeft=17;spacingBottom=0;spacingTop=8;" vertex="1" parent="1">
          <mxGeometry x="420" y="-75" width="240" height="240" as="geometry" />
        </mxCell>
        <mxCell id="7mZ6N7cNtGCExNmRLh_p-2" value="&lt;b&gt;Cloud&lt;/b&gt;" style="ellipse;shape=cloud;whiteSpace=wrap;html=1;shadow=1;sketch=1;fillColor=none;labelPosition=center;verticalLabelPosition=bottom;align=center;verticalAlign=top;" vertex="1" parent="1">
          <mxGeometry x="-210" y="-30" width="490" height="330" as="geometry" />
        </mxCell>
        <mxCell id="7mZ6N7cNtGCExNmRLh_p-9" style="edgeStyle=orthogonalEdgeStyle;rounded=0;orthogonalLoop=1;jettySize=auto;html=1;curved=1;exitX=0.5;exitY=0;exitDx=0;exitDy=0;entryX=0.5;entryY=0;entryDx=0;entryDy=0;" edge="1" parent="1" source="7mZ6N7cNtGCExNmRLh_p-3" target="7mZ6N7cNtGCExNmRLh_p-4">
          <mxGeometry relative="1" as="geometry">
            <Array as="points">
              <mxPoint x="50" y="55" />
            </Array>
          </mxGeometry>
        </mxCell>
        <mxCell id="7mZ6N7cNtGCExNmRLh_p-10" style="edgeStyle=orthogonalEdgeStyle;curved=1;rounded=0;orthogonalLoop=1;jettySize=auto;html=1;" edge="1" parent="1" source="7mZ6N7cNtGCExNmRLh_p-3" target="7mZ6N7cNtGCExNmRLh_p-8">
          <mxGeometry relative="1" as="geometry" />
        </mxCell>
        <mxCell id="7mZ6N7cNtGCExNmRLh_p-11" style="edgeStyle=orthogonalEdgeStyle;curved=1;rounded=0;orthogonalLoop=1;jettySize=auto;html=1;exitX=0.5;exitY=1;exitDx=0;exitDy=0;" edge="1" parent="1" source="7mZ6N7cNtGCExNmRLh_p-3" target="7mZ6N7cNtGCExNmRLh_p-7">
          <mxGeometry relative="1" as="geometry" />
        </mxCell>
        <mxCell id="7mZ6N7cNtGCExNmRLh_p-3" value="Monitorização" style="ellipse;whiteSpace=wrap;html=1;aspect=fixed;strokeColor=#2D7600;fontColor=#ffffff;shadow=1;sketch=0;fillColor=#72BF69;opacity=80;fontStyle=1" vertex="1" parent="1">
          <mxGeometry x="10" y="90" width="80" height="80" as="geometry" />
        </mxCell>
        <mxCell id="7mZ6N7cNtGCExNmRLh_p-4" value="&lt;b style=&quot;color: rgb(255 , 255 , 255) ; font-family: &amp;#34;arial&amp;#34; , sans-serif ; font-size: 14px ; text-align: left&quot;&gt;e-μS B&lt;br&gt;#1&lt;br&gt;&lt;/b&gt;" style="shape=hexagon;perimeter=hexagonPerimeter2;whiteSpace=wrap;html=1;fixedSize=1;shadow=1;sketch=0;strokeWidth=1;gradientColor=none;direction=south;fillColor=#3399FF;opacity=80;" vertex="1" parent="1">
          <mxGeometry x="-75" y="20" width="65" height="70" as="geometry" />
        </mxCell>
        <mxCell id="7mZ6N7cNtGCExNmRLh_p-7" value="&lt;b style=&quot;color: rgb(255 , 255 , 255) ; font-family: &amp;#34;arial&amp;#34; , sans-serif ; font-size: 14px ; text-align: left&quot;&gt;e-μS C&lt;br&gt;#1&lt;br&gt;&lt;/b&gt;" style="shape=hexagon;perimeter=hexagonPerimeter2;whiteSpace=wrap;html=1;fixedSize=1;shadow=1;sketch=0;strokeWidth=1;gradientColor=none;direction=south;fillColor=#3399FF;opacity=80;" vertex="1" parent="1">
          <mxGeometry x="-75" y="170" width="65" height="70" as="geometry" />
        </mxCell>
        <mxCell id="7mZ6N7cNtGCExNmRLh_p-8" value="&lt;b style=&quot;color: rgb(255 , 255 , 255) ; font-family: &amp;#34;arial&amp;#34; , sans-serif ; font-size: 14px ; text-align: left&quot;&gt;e-μS A&lt;br&gt;#1&lt;br&gt;&lt;/b&gt;" style="shape=hexagon;perimeter=hexagonPerimeter2;whiteSpace=wrap;html=1;fixedSize=1;shadow=1;sketch=0;strokeWidth=1;gradientColor=none;direction=south;fillColor=#3399FF;opacity=80;" vertex="1" parent="1">
          <mxGeometry x="-130" y="95" width="65" height="70" as="geometry" />
        </mxCell>
        <mxCell id="7mZ6N7cNtGCExNmRLh_p-14" style="edgeStyle=orthogonalEdgeStyle;curved=1;rounded=0;orthogonalLoop=1;jettySize=auto;html=1;endArrow=none;endFill=0;startArrow=classic;startFill=1;" edge="1" parent="1" source="7mZ6N7cNtGCExNmRLh_p-12" target="7mZ6N7cNtGCExNmRLh_p-3">
          <mxGeometry relative="1" as="geometry" />
        </mxCell>
        <mxCell id="7mZ6N7cNtGCExNmRLh_p-35" style="edgeStyle=orthogonalEdgeStyle;curved=1;rounded=0;orthogonalLoop=1;jettySize=auto;html=1;startArrow=none;startFill=0;endArrow=classic;endFill=1;fontSize=15;exitX=0.96;exitY=0.331;exitDx=0;exitDy=0;exitPerimeter=0;entryX=0.5;entryY=1;entryDx=0;entryDy=0;strokeColor=#FF0000;opacity=70;" edge="1" parent="1" source="7mZ6N7cNtGCExNmRLh_p-12" target="7mZ6N7cNtGCExNmRLh_p-29">
          <mxGeometry relative="1" as="geometry">
            <Array as="points">
              <mxPoint x="250" y="87" />
              <mxPoint x="250" y="73" />
              <mxPoint x="289" y="73" />
            </Array>
          </mxGeometry>
        </mxCell>
        <mxCell id="7mZ6N7cNtGCExNmRLh_p-36" style="edgeStyle=orthogonalEdgeStyle;curved=1;rounded=0;orthogonalLoop=1;jettySize=auto;html=1;startArrow=none;startFill=0;endArrow=classic;endFill=1;fontSize=15;fillColor=#e51400;strokeColor=#FF0000;opacity=70;" edge="1" parent="1" source="7mZ6N7cNtGCExNmRLh_p-12" target="7mZ6N7cNtGCExNmRLh_p-30">
          <mxGeometry relative="1" as="geometry">
            <mxPoint x="289" y="90" as="targetPoint" />
            <Array as="points">
              <mxPoint x="249" y="110" />
              <mxPoint x="249" y="123" />
            </Array>
          </mxGeometry>
        </mxCell>
        <mxCell id="7mZ6N7cNtGCExNmRLh_p-39" style="edgeStyle=orthogonalEdgeStyle;curved=1;rounded=0;orthogonalLoop=1;jettySize=auto;html=1;entryX=1;entryY=0.5;entryDx=0;entryDy=0;startArrow=none;startFill=0;endArrow=classic;endFill=1;fontSize=15;exitX=1;exitY=1;exitDx=0;exitDy=0;gradientColor=#ea6b66;fillColor=#f8cecc;strokeColor=#FF0000;opacity=70;" edge="1" parent="1" source="7mZ6N7cNtGCExNmRLh_p-12" target="7mZ6N7cNtGCExNmRLh_p-31">
          <mxGeometry relative="1" as="geometry">
            <Array as="points">
              <mxPoint x="198" y="176" />
              <mxPoint x="514" y="176" />
            </Array>
          </mxGeometry>
        </mxCell>
        <mxCell id="7mZ6N7cNtGCExNmRLh_p-12" value="Gestor" style="ellipse;whiteSpace=wrap;html=1;aspect=fixed;shadow=1;sketch=0;fillColor=#e51400;opacity=60;strokeColor=#B20000;fontColor=#ffffff;strokeWidth=1;fontSize=15;fontStyle=1" vertex="1" parent="1">
          <mxGeometry x="130" y="60" width="80" height="80" as="geometry" />
        </mxCell>
        <mxCell id="7mZ6N7cNtGCExNmRLh_p-16" value="&lt;font color=&quot;#000000&quot;&gt;&lt;b&gt;Nó na periferia da rede&lt;/b&gt;&lt;/font&gt;" style="ellipse;whiteSpace=wrap;html=1;shadow=0;sketch=0;labelPosition=center;verticalLabelPosition=bottom;align=center;verticalAlign=top;direction=south;strokeColor=#B09500;fontColor=#ffffff;fillColor=none;" vertex="1" parent="1">
          <mxGeometry x="237" y="197.5" width="220" height="213" as="geometry" />
        </mxCell>
        <mxCell id="7mZ6N7cNtGCExNmRLh_p-24" style="edgeStyle=orthogonalEdgeStyle;curved=1;rounded=0;orthogonalLoop=1;jettySize=auto;html=1;startArrow=none;startFill=0;endArrow=classic;endFill=1;fontSize=15;" edge="1" parent="1" source="7mZ6N7cNtGCExNmRLh_p-17" target="7mZ6N7cNtGCExNmRLh_p-19">
          <mxGeometry relative="1" as="geometry" />
        </mxCell>
        <mxCell id="7mZ6N7cNtGCExNmRLh_p-25" style="edgeStyle=orthogonalEdgeStyle;curved=1;rounded=0;orthogonalLoop=1;jettySize=auto;html=1;startArrow=none;startFill=0;endArrow=classic;endFill=1;fontSize=15;" edge="1" parent="1" source="7mZ6N7cNtGCExNmRLh_p-17" target="7mZ6N7cNtGCExNmRLh_p-20">
          <mxGeometry relative="1" as="geometry" />
        </mxCell>
        <mxCell id="7mZ6N7cNtGCExNmRLh_p-32" style="edgeStyle=orthogonalEdgeStyle;curved=1;rounded=0;orthogonalLoop=1;jettySize=auto;html=1;startArrow=none;startFill=0;endArrow=classic;endFill=1;fontSize=15;" edge="1" parent="1" source="7mZ6N7cNtGCExNmRLh_p-17" target="7mZ6N7cNtGCExNmRLh_p-31">
          <mxGeometry relative="1" as="geometry" />
        </mxCell>
        <mxCell id="7mZ6N7cNtGCExNmRLh_p-34" style="edgeStyle=orthogonalEdgeStyle;curved=1;rounded=0;orthogonalLoop=1;jettySize=auto;html=1;dashed=1;startArrow=none;startFill=0;endArrow=classic;endFill=1;fontSize=15;exitX=0;exitY=0.5;exitDx=0;exitDy=0;" edge="1" parent="1" source="7mZ6N7cNtGCExNmRLh_p-17" target="7mZ6N7cNtGCExNmRLh_p-12">
          <mxGeometry relative="1" as="geometry">
            <Array as="points">
              <mxPoint x="429" y="10" />
              <mxPoint x="170" y="10" />
            </Array>
          </mxGeometry>
        </mxCell>
        <mxCell id="7mZ6N7cNtGCExNmRLh_p-17" value="Monitorização" style="ellipse;whiteSpace=wrap;html=1;aspect=fixed;strokeColor=#2D7600;fontColor=#ffffff;shadow=1;sketch=0;fillColor=#72BF69;opacity=80;fontStyle=1" vertex="1" parent="1">
          <mxGeometry x="429" y="-5" width="80" height="80" as="geometry" />
        </mxCell>
        <mxCell id="7mZ6N7cNtGCExNmRLh_p-27" style="edgeStyle=orthogonalEdgeStyle;curved=1;rounded=0;orthogonalLoop=1;jettySize=auto;html=1;entryX=1;entryY=0.5;entryDx=0;entryDy=0;startArrow=none;startFill=0;endArrow=classic;endFill=1;fontSize=15;" edge="1" parent="1" source="7mZ6N7cNtGCExNmRLh_p-18" target="7mZ6N7cNtGCExNmRLh_p-21">
          <mxGeometry relative="1" as="geometry" />
        </mxCell>
        <mxCell id="7mZ6N7cNtGCExNmRLh_p-28" style="edgeStyle=orthogonalEdgeStyle;curved=1;rounded=0;orthogonalLoop=1;jettySize=auto;html=1;startArrow=none;startFill=0;endArrow=classic;endFill=1;fontSize=15;" edge="1" parent="1" source="7mZ6N7cNtGCExNmRLh_p-18" target="7mZ6N7cNtGCExNmRLh_p-26">
          <mxGeometry relative="1" as="geometry" />
        </mxCell>
        <mxCell id="7mZ6N7cNtGCExNmRLh_p-18" value="Monitorização" style="ellipse;whiteSpace=wrap;html=1;aspect=fixed;strokeColor=#2D7600;fontColor=#ffffff;shadow=1;sketch=0;fillColor=#72BF69;opacity=80;fontStyle=1" vertex="1" parent="1">
          <mxGeometry x="250" y="280" width="80" height="80" as="geometry" />
        </mxCell>
        <mxCell id="7mZ6N7cNtGCExNmRLh_p-19" value="&lt;b style=&quot;color: rgb(255 , 255 , 255) ; font-family: &amp;#34;arial&amp;#34; , sans-serif ; font-size: 14px ; text-align: left&quot;&gt;e-μS A&lt;br&gt;#2&lt;br&gt;&lt;/b&gt;" style="shape=hexagon;perimeter=hexagonPerimeter2;whiteSpace=wrap;html=1;fixedSize=1;shadow=1;sketch=0;strokeWidth=1;gradientColor=none;direction=south;fillColor=#3399FF;opacity=80;" vertex="1" parent="1">
          <mxGeometry x="553" y="-55" width="65" height="70" as="geometry" />
        </mxCell>
        <mxCell id="7mZ6N7cNtGCExNmRLh_p-20" value="&lt;b style=&quot;color: rgb(255 , 255 , 255) ; font-family: &amp;#34;arial&amp;#34; , sans-serif ; font-size: 14px ; text-align: left&quot;&gt;e-μS C&lt;br&gt;#2&lt;br&gt;&lt;/b&gt;" style="shape=hexagon;perimeter=hexagonPerimeter2;whiteSpace=wrap;html=1;fixedSize=1;shadow=1;sketch=0;strokeWidth=1;gradientColor=none;direction=south;fillColor=#3399FF;opacity=80;" vertex="1" parent="1">
          <mxGeometry x="553" y="47.5" width="65" height="70" as="geometry" />
        </mxCell>
        <mxCell id="7mZ6N7cNtGCExNmRLh_p-21" value="&lt;b style=&quot;color: rgb(255 , 255 , 255) ; font-family: &amp;#34;arial&amp;#34; , sans-serif ; font-size: 14px ; text-align: left&quot;&gt;e-μS B&lt;br&gt;#2&lt;br&gt;&lt;/b&gt;" style="shape=hexagon;perimeter=hexagonPerimeter2;whiteSpace=wrap;html=1;fixedSize=1;shadow=1;sketch=0;strokeWidth=1;gradientColor=none;direction=south;fillColor=#3399FF;opacity=80;" vertex="1" parent="1">
          <mxGeometry x="348.5" y="210" width="65" height="70" as="geometry" />
        </mxCell>
        <mxCell id="7mZ6N7cNtGCExNmRLh_p-26" value="" style="shape=hexagon;perimeter=hexagonPerimeter2;whiteSpace=wrap;html=1;fixedSize=1;shadow=1;sketch=0;strokeWidth=1;gradientColor=none;direction=south;fillColor=#3399FF;opacity=80;size=10;" vertex="1" parent="1">
          <mxGeometry x="348.5" y="370" width="41.5" height="35" as="geometry" />
        </mxCell>
        <mxCell id="7mZ6N7cNtGCExNmRLh_p-29" value="" style="shape=hexagon;perimeter=hexagonPerimeter2;whiteSpace=wrap;html=1;fixedSize=1;shadow=1;sketch=0;strokeWidth=1;gradientColor=none;direction=south;fillColor=#3399FF;opacity=80;size=10;" vertex="1" parent="1">
          <mxGeometry x="288.5" y="55" width="41.5" height="35" as="geometry" />
        </mxCell>
        <mxCell id="7mZ6N7cNtGCExNmRLh_p-30" value="" style="shape=hexagon;perimeter=hexagonPerimeter2;whiteSpace=wrap;html=1;fixedSize=1;shadow=1;sketch=0;strokeWidth=1;gradientColor=none;direction=south;fillColor=#3399FF;opacity=80;size=10;" vertex="1" parent="1">
          <mxGeometry x="288.5" y="105" width="41.5" height="35" as="geometry" />
        </mxCell>
        <mxCell id="7mZ6N7cNtGCExNmRLh_p-31" value="" style="shape=hexagon;perimeter=hexagonPerimeter2;whiteSpace=wrap;html=1;fixedSize=1;shadow=1;sketch=0;strokeWidth=1;gradientColor=none;direction=south;fillColor=#3399FF;opacity=80;size=10;" vertex="1" parent="1">
          <mxGeometry x="493" y="117.5" width="41.5" height="35" as="geometry" />
        </mxCell>
        <mxCell id="7mZ6N7cNtGCExNmRLh_p-33" style="edgeStyle=orthogonalEdgeStyle;curved=1;rounded=0;orthogonalLoop=1;jettySize=auto;html=1;entryX=0.5;entryY=1;entryDx=0;entryDy=0;startArrow=none;startFill=0;endArrow=classic;endFill=1;fontSize=15;dashed=1;" edge="1" parent="1" source="7mZ6N7cNtGCExNmRLh_p-18" target="7mZ6N7cNtGCExNmRLh_p-12">
          <mxGeometry relative="1" as="geometry" />
        </mxCell>
        <mxCell id="7mZ6N7cNtGCExNmRLh_p-41" value="" style="endArrow=classic;html=1;fontSize=15;exitX=0.625;exitY=0;exitDx=0;exitDy=0;fillColor=#b1ddf0;strokeColor=#007FFF;" edge="1" parent="1" source="7mZ6N7cNtGCExNmRLh_p-30">
          <mxGeometry width="50" height="50" relative="1" as="geometry">
            <mxPoint x="-70" y="220" as="sourcePoint" />
            <mxPoint x="390" y="110" as="targetPoint" />
            <Array as="points">
              <mxPoint x="370" y="127" />
              <mxPoint x="350" y="110" />
              <mxPoint x="380" y="110" />
            </Array>
          </mxGeometry>
        </mxCell>
        <mxCell id="7mZ6N7cNtGCExNmRLh_p-42" value="" style="endArrow=classic;html=1;fontSize=15;strokeColor=#007FFF;" edge="1" parent="1" source="7mZ6N7cNtGCExNmRLh_p-29">
          <mxGeometry width="50" height="50" relative="1" as="geometry">
            <mxPoint x="329.9999999999998" y="74.375" as="sourcePoint" />
            <mxPoint x="380" y="48" as="targetPoint" />
            <Array as="points">
              <mxPoint x="370" y="74.5" />
              <mxPoint x="350" y="47.5" />
              <mxPoint x="380" y="47.5" />
            </Array>
          </mxGeometry>
        </mxCell>
        <mxCell id="7mZ6N7cNtGCExNmRLh_p-43" value="" style="endArrow=classic;html=1;fontSize=15;fillColor=#b1ddf0;strokeColor=#007FFF;" edge="1" parent="1" source="7mZ6N7cNtGCExNmRLh_p-31">
          <mxGeometry width="50" height="50" relative="1" as="geometry">
            <mxPoint x="436" y="125.5" as="sourcePoint" />
            <mxPoint x="427" y="150" as="targetPoint" />
            <Array as="points">
              <mxPoint x="447" y="130" />
              <mxPoint x="457" y="140" />
              <mxPoint x="467" y="152" />
            </Array>
          </mxGeometry>
        </mxCell>
      </root>
    </mxGraphModel>
  </diagram>
</mxfile>
